<svg width="32" height="32" xmlns="http://www.w3.org/2000/svg">
 <title>file_type_vcxproj</title>
  <path id="svg_1" fill="#68217a" d="m29.821,4.321l-5.798,-2.321l-12.53,12.212l-7.66,-5.827l-1.654,0.837l0,13.578l1.644,0.827l7.65,-5.827l12.55,12.2l5.8,-2.321l0,-23.358l-0.002,0zm-25.171,14.871l0,-6.374l3.55,3.167l-3.55,3.207zm11.35,-3.207l7.082,-5.3l0,10.639l-7.092,-5.339l0.01,0z"/>
  <polygon id="svg_2" fill="#fff" points="15.995 15.985 23.077 10.686 23.077 21.324 15.985 15.985 15.995 15.985"/>
  <polygon id="svg_3" fill="#fff" points="4.65 19.192 4.65 12.818 8.196 15.985 4.65 19.192"/>
  <path id="svg_4" fill="#efeef0" d="m15.527,32a7.159,7.159 0 0 1 -5.527,-2.242a8.1,8.1 0 0 1 -2,-5.683a8.56,8.56 0 0 1 2.213,-6.063a7.608,7.608 0 0 1 5.787,-2.412a9.836,9.836 0 0 1 3.558,0.581l0.956,0.372l0,6.56l-2.3,-1.458a3.6,3.6 0 0 0 -1.989,-0.544a2.117,2.117 0 0 0 -1.672,0.662a2.957,2.957 0 0 0 -0.658,2.091a2.877,2.877 0 0 0 0.615,2a1.9,1.9 0 0 0 1.562,0.614a3.968,3.968 0 0 0 2.153,-0.6l2.292,-1.426l0,6.28l-0.815,0.419a9.144,9.144 0 0 1 -4.175,0.849z"/>
  <path id="svg_5" fill="#984c93" d="m19.017,29.81a7.65,7.65 0 0 1 -3.49,0.686a5.7,5.7 0 0 1 -4.417,-1.752a6.629,6.629 0 0 1 -1.61,-4.668a7.077,7.077 0 0 1 1.809,-5.039a6.136,6.136 0 0 1 4.691,-1.937a8.329,8.329 0 0 1 3.013,0.479l0,2.809a5.108,5.108 0 0 0 -2.792,-0.777a3.6,3.6 0 0 0 -2.775,1.147a4.409,4.409 0 0 0 -1.055,3.107a4.331,4.331 0 0 0 1,2.994a3.413,3.413 0 0 0 2.681,1.115a5.466,5.466 0 0 0 2.945,-0.831l0,2.667z"/>
  <path stroke="#efeef0" id="svg_13" d="m20.732842,22.953109l1.514364,0l0,-1.514364l1.55345,0l0,1.514364l1.514365,0l0,1.55345l-1.514365,0l0,1.514364l-1.55345,0l0,-1.514364l-1.514364,0l0,-1.55345z" stroke-width="0.5" fill="#984c93"/>
  <path stroke="#efeef0" id="svg_15" d="m25.778865,22.95311l1.51437,0l0,-1.51437l1.55345,0l0,1.51437l1.51436,0l0,1.55345l-1.51436,0l0,1.51436l-1.55345,0l0,-1.51436l-1.51437,0l0,-1.55345z" stroke-width="0.5" fill="#984c93"/>
 </svg>